<svg xmlns="http://www.w3.org/2000/svg" width="28" height="28"><path fill-rule="evenodd" fill="#c7b299" d="M24.5 3.494c-2.404-2.405-6.341-2.405-8.744 0l-4.721 4.723a7.069 7.069 0 014.908.376l2.454-2.456a2.447 2.447 0 013.46 3.462l-3.085 3.087-2.028 2.029a2.446 2.446 0 01-3.46 0l-2.641 2.644a6.04 6.04 0 002.079 1.365 6.24 6.24 0 006.153-.905c.17-.136.358-.29.511-.46l3.187-3.19 1.926-1.927c2.42-2.405 2.42-6.327 0-8.748zm-12.562 16.03l-2.352 2.354a2.447 2.447 0 11-3.46-3.462l5.113-5.115a2.446 2.446 0 013.46 0l2.642-2.645a6.012 6.012 0 00-2.08-1.363 6.191 6.191 0 00-6.425 1.142c-.085.068-.17.154-.239.221l-5.113 5.118c-2.403 2.404-2.403 6.343 0 8.747 2.403 2.406 6.34 2.406 8.744 0l4.618-4.672c-2.351.546-2.897.478-4.908-.325z"/></svg>