<svg xmlns="http://www.w3.org/2000/svg" width="55" height="38"><path fill-rule="evenodd" fill="#555" d="M10 14.245c1.002-2.058 3.474-3.608 5.742-3.608h26.207V8.983c0-1.364-1.107-2.482-2.458-2.482H28.675V5.058c0-2.057-1.655-3.723-3.684-3.723h-6.29a3.64 3.64 0 00-2.607 1.095 3.694 3.694 0 00-1.082 2.628v1.444H4.196C2.843 6.501 1.739 7.62 1.739 8.983v22.164l8.26-16.902zm7.47-9.187c0-.328.132-.64.362-.875.23-.238.54-.368.866-.368h6.29c.679 0 1.23.555 1.23 1.243v1.444H17.47V5.058zm25.45 29.705c-.595 1.221-2.192 2.22-3.543 2.22H4.08c-1.35 0-1.968-1.001-1.37-2.22l9.493-19.422c.593-1.223 2.188-2.226 3.539-2.226H51.04c1.354 0 1.969 1.003 1.371 2.226l-9.49 19.422z"/></svg>