<svg xmlns="http://www.w3.org/2000/svg" width="80" height="76"><path fill-rule="evenodd" fill="#fff" d="M34.934 56.82a2.06 2.06 0 01-2.06-2.06V25.235a2.06 2.06 0 013.379-1.582l17.714 14.762a2.06 2.06 0 010 3.165L36.253 56.343a2.06 2.06 0 01-1.32.477zm2.06-27.187v20.73l12.437-10.366-12.437-10.364zm2.943 45.365a34.808 34.808 0 01-17.106-4.47 2.06 2.06 0 112.02-3.59c12.019 6.765 27.231 4.674 36.994-5.093 12.047-12.047 12.047-31.647 0-43.695-12.047-12.05-31.649-12.048-43.695 0s-12.046 31.648 0 43.695a2.06 2.06 0 01-2.913 2.914c-13.653-13.654-13.653-35.869 0-49.523 13.654-13.652 35.867-13.653 49.522 0 13.653 13.654 13.653 35.869 0 49.523-6.726 6.725-15.733 10.24-24.822 10.24z"/></svg>